<svg width="25" height="25" viewBox="0 0 25 25" fill="none" xmlns="http://www.w3.org/2000/svg">
<path d="M10.292 19.5612C10.0585 19.5617 9.83226 19.4796 9.65249 19.3293C9.55131 19.2446 9.46768 19.1406 9.40637 19.0233C9.34507 18.906 9.3073 18.7776 9.29524 18.6455C9.28317 18.5135 9.29704 18.3803 9.33605 18.2536C9.37507 18.127 9.43846 18.0093 9.52259 17.9074L13.9991 12.5024L9.68247 7.08724C9.59947 6.9841 9.53749 6.86541 9.50008 6.73801C9.46268 6.61061 9.4506 6.477 9.46452 6.34487C9.47845 6.21274 9.51812 6.0847 9.58124 5.96809C9.64437 5.85148 9.72971 5.74861 9.83235 5.66539C9.93574 5.57359 10.0568 5.50435 10.188 5.46201C10.3191 5.41966 10.4575 5.40514 10.5945 5.41934C10.7315 5.43355 10.8641 5.47617 10.984 5.54454C11.1039 5.61291 11.2085 5.70556 11.2912 5.81665L16.1174 11.8671C16.2644 12.0475 16.3448 12.2738 16.3448 12.5074C16.3448 12.741 16.2644 12.9673 16.1174 13.1477L11.1213 19.1982C11.0211 19.3202 10.8938 19.4167 10.7497 19.4797C10.6056 19.5428 10.4488 19.5707 10.292 19.5612Z" fill="white"/>
</svg>
