<svg width="25" height="24" viewBox="0 0 25 24" fill="none" xmlns="http://www.w3.org/2000/svg">
<path d="M5.87256 13L17.7326 13L14.1026 17.36C14.0185 17.4611 13.9552 17.5778 13.9163 17.7034C13.8773 17.829 13.8635 17.961 13.8755 18.0919C13.8999 18.3564 14.0283 18.6003 14.2326 18.77C14.4368 18.9397 14.7001 19.0214 14.9645 18.997C15.2289 18.9726 15.4728 18.8442 15.6426 18.64L20.6426 12.64C20.6762 12.5923 20.7063 12.5421 20.7326 12.49C20.7326 12.44 20.7826 12.41 20.8026 12.36C20.8479 12.2453 20.8716 12.1233 20.8726 12C20.8716 11.8767 20.8479 11.7547 20.8026 11.64C20.8026 11.59 20.7526 11.56 20.7326 11.51C20.7063 11.4579 20.6762 11.4077 20.6426 11.36L15.6426 5.36C15.5485 5.24712 15.4308 5.15634 15.2977 5.09412C15.1646 5.0319 15.0195 4.99976 14.8726 5C14.6389 4.99955 14.4125 5.08092 14.2326 5.23C14.1313 5.31395 14.0476 5.41705 13.9862 5.5334C13.9249 5.64975 13.8871 5.77705 13.875 5.90803C13.8629 6.03901 13.8768 6.17108 13.9159 6.29668C13.9549 6.42229 14.0184 6.53895 14.1026 6.64L17.7326 11L5.87256 11C5.60734 11 5.35299 11.1054 5.16545 11.2929C4.97792 11.4804 4.87256 11.7348 4.87256 12C4.87256 12.2652 4.97792 12.5196 5.16545 12.7071C5.35299 12.8946 5.60734 13 5.87256 13Z" fill="#444444"/>
</svg>
