<svg width="25" height="25" viewBox="0 0 25 25" fill="none" xmlns="http://www.w3.org/2000/svg">
<path d="M14.3296 5.44662C14.5631 5.44616 14.7893 5.52822 14.9691 5.67855C15.0703 5.76321 15.1539 5.86718 15.2152 5.9845C15.2765 6.10182 15.3143 6.2302 15.3263 6.36228C15.3384 6.49436 15.3245 6.62754 15.2855 6.7542C15.2465 6.88086 15.1831 6.9985 15.099 7.1004L10.6225 12.5054L14.9391 17.9206C15.0221 18.0237 15.0841 18.1424 15.1215 18.2698C15.1589 18.3972 15.171 18.5308 15.1571 18.6629C15.1431 18.7951 15.1035 18.9231 15.0403 19.0397C14.9772 19.1563 14.8919 19.2592 14.7892 19.3424C14.6858 19.4342 14.5648 19.5035 14.4336 19.5458C14.3025 19.5881 14.164 19.6027 14.0271 19.5885C13.8901 19.5743 13.7575 19.5316 13.6376 19.4633C13.5177 19.3949 13.4131 19.3023 13.3304 19.1912L8.50414 13.1407C8.35717 12.9603 8.27683 12.734 8.27683 12.5004C8.27683 12.2668 8.35717 12.0405 8.50414 11.8601L13.5002 5.80965C13.6005 5.68761 13.7278 5.59114 13.8719 5.52807C14.016 5.465 14.1728 5.43709 14.3296 5.44662Z" fill="white"/>
</svg>
