<svg width="24" height="24" viewBox="0 0 24 24" fill="none" xmlns="http://www.w3.org/2000/svg">
<path d="M4.20857 13L19.7914 13C20.4589 13 21 12.5791 21 12.06L21 11.94C21 11.4209 20.4589 11 19.7914 11L4.20857 11C3.5411 11 3 11.4209 3 11.94L3 12.06C3 12.5791 3.5411 13 4.20857 13Z" fill="#444444"/>
<path d="M3.94 8L20.06 8C20.5791 8 21 7.57915 21 7.06L21 6.94C21 6.42085 20.5791 6 20.06 6L3.94 6C3.42085 6 3 6.42085 3 6.94L3 7.06C3 7.57915 3.42085 8 3.94 8Z" fill="#444444"/>
<path d="M3.94 18L20.06 18C20.5791 18 21 17.5791 21 17.06L21 16.94C21 16.4209 20.5791 16 20.06 16L3.94 16C3.42085 16 3 16.4209 3 16.94L3 17.06C3 17.5791 3.42085 18 3.94 18Z" fill="#444444"/>
</svg>
